<svg id="mouth" enable-background="new 0 0 300 300" height="512" fill="#283b6a" viewBox="0 0 300 300" width="512" xmlns="http://www.w3.org/2000/svg"><g><path d="m185.005 46.878c2.362 0 4.277-1.915 4.277-4.276s-1.915-4.277-4.277-4.277-4.276 1.915-4.276 4.277 1.915 4.276 4.276 4.276z"/><path d="m244 85.675c2.211 0 4-1.791 4-4v-8c0-2.209-1.789-4-4-4s-4 1.791-4 4v8c0 2.209 1.789 4 4 4z"/><path d="m244 93.675c-2.211 0-4 1.791-4 4v8c0 2.209 1.789 4 4 4s4-1.791 4-4v-8c0-2.209-1.789-4-4-4z"/><path d="m228 93.675h8c2.211 0 4-1.791 4-4s-1.789-4-4-4h-8c-2.211 0-4 1.791-4 4s1.789 4 4 4z"/><path d="m252 93.675h8c2.211 0 4-1.791 4-4s-1.789-4-4-4h-8c-2.211 0-4 1.791-4 4s1.789 4 4 4z"/><path d="m78 233.675c-7.719 0-14 6.281-14 14s6.281 14 14 14 14-6.281 14-14-6.281-14-14-14zm0 20c-3.309 0-6-2.691-6-6s2.691-6 6-6 6 2.691 6 6-2.691 6-6 6z"/><path d="m37.005 190.325c-2.362 0-4.276 1.915-4.276 4.277s1.915 4.276 4.276 4.276 4.277-1.915 4.277-4.276-1.915-4.277-4.277-4.277z"/><path d="m158.285 141.196c-5.156 1.242-10.836 1.242-15.992 0-8.48-2.039-21.277-2.635-34.098 6.16-18.066 12.395-30.16 10.76-30.258 10.738-1.656-.271-3.266.475-4.113 1.895-.844 1.422-.73 3.217.293 4.52.668.854 16.73 21.064 43.355 33.486 9.461 4.414 20.809 6.746 32.816 6.746s23.355-2.332 32.816-6.746c26.629-12.422 42.691-32.633 43.359-33.486 1.016-1.291 1.117-3.064.293-4.48-.824-1.418-2.473-2.182-4.074-1.939-.125.018-12.223 1.664-30.297-10.732-12.819-8.791-25.608-8.199-34.1-6.162zm-45.566 12.758c10.391-7.125 20.797-6.639 27.699-4.98 6.461 1.555 13.281 1.555 19.742 0 6.895-1.658 17.309-2.145 27.703 4.98 3.086 2.117 6.016 3.844 8.798 5.3-11.819 4.517-28.471 7.157-46.372 7.157-17.938 0-34.562-2.64-46.367-7.158 2.782-1.456 5.711-3.183 8.797-5.299zm9.47 37.313c7.739-2.451 17.473-3.815 27.811-3.815 10.355 0 20.325 1.422 28.121 3.92-8.099 3.474-17.641 5.369-27.832 5.369-10.302 0-19.947-1.927-28.1-5.474zm65.467-4.688c-9.4-4.525-22.989-7.127-37.656-7.127-14.442 0-27.974 2.542-37.348 6.968-12.101-6.984-21.361-15.292-26.77-20.808 2.32-.388 5.038-1.036 8.079-2.057 12.807 6.795 33.742 10.855 56.327 10.855 22.544 0 43.562-4.055 56.357-10.847 3.034 1.016 5.746 1.663 8.061 2.05-5.437 5.554-14.785 13.94-27.05 20.966z"/><path d="m252.531 147.071c-.176.047-17.332 3.438-43.148-22.377-17.863-17.861-35.855-16.609-47.801-12.418-7.379 2.588-15.191 2.594-22.586-.002-11.953-4.186-29.941-5.439-47.801 12.42-25.832 25.832-42.965 22.42-43.094 22.391-1.516-.375-3.156.174-4.125 1.426-.973 1.25-1.117 2.957-.367 4.352.934 1.732 23.266 42.693 60.469 67.998 13.285 9.039 29.266 13.816 46.211 13.816 16.949 0 32.93-4.777 46.215-13.816 37.203-25.305 59.531-66.268 60.465-67.998.738-1.377.582-3.053-.359-4.301-.942-1.247-2.563-1.819-4.079-1.491zm-60.527 67.176c-11.953 8.131-26.379 12.43-41.715 12.43-15.332 0-29.758-4.299-41.711-12.43-27.383-18.627-46.82-46.992-54.406-59.227 8.688-.992 23.844-5.834 42.68-24.67 14.922-14.918 29.711-13.959 39.496-10.525 9.129 3.201 18.77 3.197 27.883 0 9.789-3.432 24.582-4.393 39.496 10.525 18.836 18.838 33.996 23.68 42.68 24.67-7.583 12.235-27.02 40.6-54.403 59.227z"/><path d="m140.168 103.38c2.734 1.576 5.809 2.395 8.957 2.395.434 0 .867-.016 1.305-.047 3.02-.217 5.953-1.195 8.48-2.83 1.855-1.201 2.387-3.678 1.188-5.531-1.203-1.855-3.676-2.383-5.531-1.188-1.402.906-3.027 1.449-4.707 1.568-1.996.141-3.977-.305-5.699-1.301-1.914-1.1-4.363-.443-5.461 1.471-1.106 1.914-.446 4.359 1.468 5.463z"/><path d="m256 133.675c-2.211 0-4 1.791-4 4s1.789 4 4 4c4.41 0 8 3.588 8 8 0 2.209 1.789 4 4 4s4-1.791 4-4c0-8.823-7.176-16-16-16z"/><path d="m36 149.675c0-4.412 3.59-8 8-8 2.211 0 4-1.791 4-4s-1.789-4-4-4c-8.824 0-16 7.178-16 16 0 2.209 1.789 4 4 4s4-1.791 4-4z"/></g></svg>