<?xml version="1.0" encoding="iso-8859-1"?>
<!-- Generator: Adobe Illustrator 19.0.0, SVG Export Plug-In . SVG Version: 6.00 Build 0)  -->
<svg version="1.1" id="Capa_1" xmlns="http://www.w3.org/2000/svg" xmlns:xlink="http://www.w3.org/1999/xlink" x="0px" y="0px"
	 viewBox="0 0 512 512" style="enable-background:new 0 0 512 512;" xml:space="preserve">
<path style="fill:#F7A6A6;" d="M378.068,280.964c-13.789-13.789-36.14-13.789-49.929,0l-19.173,19.174H79.448l-19.174-19.174
	c-13.789-13.789-36.149-13.78-49.938,0.009C3.716,287.594,0,296.572,0,305.938V512h388.414V305.938
	C388.414,296.572,384.689,287.585,378.068,280.964z"/>
<path style="fill:#F59A9A;" d="M0,512h388.414V305.938c-0.009-2.375-0.247-4.74-0.724-7.062
	C276.365,397.621,90.615,437.742,0,452.061V512z"/>
<path style="fill:#E6E6E6;" d="M146.229,111.854L146.229,111.854c-9.11-3.911-18.909-5.923-28.822-5.923l0,0
	c-40.466,0-73.269,32.803-73.269,73.269l0,0c0.009,33.095,7.715,65.739,22.51,95.338l12.8,25.6l15.148,136.36
	c1.43,12.827,12.279,22.537,25.185,22.537l0,0c12.394,0,22.961-8.96,24.991-21.186l18.6-111.607
	c2.516-15.069,15.563-26.103,30.835-26.103l0,0c15.281,0,28.319,11.043,30.835,26.121l18.6,111.59
	c2.03,12.226,12.597,21.186,24.991,21.186l0,0c12.906,0,23.755-9.71,25.185-22.537l15.148-136.36l12.8-25.6
	c14.795-29.599,22.501-62.243,22.51-95.338l0,0c0-40.466-32.803-73.269-73.269-73.269l0,0c-9.922,0-19.73,2.013-28.849,5.923l0,0
	C211.527,124.972,176.861,124.972,146.229,111.854z"/>
<path style="fill:#F2F2F2;" d="M88.276,203.034H70.621V190.72c-0.026-22.837,11.396-44.173,30.411-56.823l9.799,14.689
	c-14.106,9.375-22.572,25.194-22.554,42.134C88.276,190.72,88.276,203.034,88.276,203.034z"/>
<path style="fill:#DEDEDE;" d="M81.54,318.923l13.056,117.575c1.43,12.827,12.279,22.537,25.185,22.537l0,0
	c12.394,0,22.961-8.96,24.991-21.186l18.6-111.607c2.834-17.028,18.935-28.54,35.964-25.706
	c13.18,2.189,23.517,12.526,25.706,25.706l18.6,111.607c2.03,12.226,12.597,21.186,24.991,21.186l0,0
	c12.906,0,23.755-9.71,25.185-22.537l15.148-136.36l12.8-25.6c14.795-29.599,22.501-62.243,22.51-95.338l0,0
	c0-15.907-5.208-31.373-14.822-44.041C275.129,242.82,164.334,294.532,81.54,318.923z"/>
<circle style="fill:#A2DAEB;" cx="388.414" cy="123.586" r="123.586"/>
<path style="fill:#86C8DC;" d="M459.414,22.528C423,118.422,346.421,181.151,301.4,211.35
	c48.472,48.022,126.694,47.651,174.716-0.83s47.651-126.694-0.83-174.716C470.378,30.95,465.064,26.5,459.414,22.528z"/>
<polygon style="fill:#F56464;" points="467.862,97.103 414.897,97.103 414.897,44.138 361.931,44.138 361.931,97.103 
	308.966,97.103 308.966,150.069 361.931,150.069 361.931,203.034 414.897,203.034 414.897,150.069 467.862,150.069 "/>
<g>
</g>
<g>
</g>
<g>
</g>
<g>
</g>
<g>
</g>
<g>
</g>
<g>
</g>
<g>
</g>
<g>
</g>
<g>
</g>
<g>
</g>
<g>
</g>
<g>
</g>
<g>
</g>
<g>
</g>
</svg>
