<svg id="Capa_1" enable-background="new 0 0 284.535 284.535" height="512" fill="#283b6a" viewBox="0 0 284.535 284.535" width="512" xmlns="http://www.w3.org/2000/svg"><path d="m120.31 201.546c-.621 0-1.252-.076-1.873-.228-2.703-.673-4.851-2.746-5.605-5.416-6.345-22.407-17.646-46.522-27.472-46.522s-21.127 24.115-27.472 46.522c-.754 2.665-2.902 4.742-5.605 5.411-2.698.678-5.553-.156-7.464-2.153-12.235-12.795-11.254-38.285-11.206-39.361-.005-8.437 2.366-18.505 4.353-25.433 1.309-4.562.441-9.466-2.385-13.444-.507-.711-.996-1.427-1.461-2.144-6.81-10.395-10.409-22.825-10.409-35.933v-6.235c0-21.212 22.521-26.818 34.434-26.818 13.075 0 22.355 6.957 27.216 11.775 4.861-4.818 14.142-11.775 27.216-11.775 11.908 0 34.434 5.605 34.434 26.818v6.236c0 13.112-3.599 25.537-10.409 35.937-.46.707-.953 1.427-1.461 2.144-2.826 3.979-3.694 8.878-2.385 13.44 1.987 6.929 4.358 16.996 4.358 25.642.043.868 1.024 26.358-11.211 39.153-1.472 1.54-3.506 2.384-5.593 2.384zm-34.95-61.65c18.192 0 30.469 32.912 35.667 50.24 6.046-8.92 6.853-24.262 6.606-29.919-.005-7.749-2.172-16.892-3.993-23.233-2.11-7.351-.735-15.209 3.77-21.554.436-.612.854-1.224 1.252-1.835 5.8-8.859 8.863-19.491 8.863-30.749v-6.236c0-17.134-23.93-17.333-24.949-17.333-14.526 0-23.247 12.083-23.332 12.207-.892 1.266-2.371 1.812-3.898 2.011-1.546-.005-2.997-.759-3.879-2.025-.076-.109-8.797-12.192-23.323-12.192-1.01.005-24.949.294-24.949 17.333v6.236c0 11.263 3.064 21.891 8.859 30.74.403.617.82 1.228 1.252 1.84 4.51 6.35 5.885 14.203 3.775 21.554-1.821 6.34-3.988 15.488-3.988 23.024-.247 5.852.583 21.222 6.601 30.123 5.196-17.325 17.474-50.232 35.666-50.232z"/><path d="m66.39 87.731c-2.618 0-4.742-2.125-4.742-4.742s2.125-4.742 4.742-4.742c5.378 0 12.425-8.133 14.995-12.074 1.432-2.196 4.363-2.817 6.563-1.38 2.196 1.432 2.812 4.368 1.38 6.563-1.09 1.674-11.025 16.375-22.938 16.375z"/><path d="m234.126 201.546c-.621 0-1.247-.076-1.868-.228-2.703-.669-4.856-2.746-5.61-5.411-6.345-22.412-17.646-46.527-27.472-46.527s-21.127 24.115-27.467 46.522c-.759 2.665-2.907 4.742-5.615 5.411-2.689.683-5.553-.156-7.46-2.153-12.23-12.795-11.254-38.285-11.206-39.361-.005-8.437 2.366-18.509 4.353-25.433 1.309-4.562.436-9.461-2.39-13.444-.503-.707-.991-1.423-1.461-2.139-6.805-10.4-10.405-22.83-10.405-35.937v-6.236c0-21.212 22.521-26.818 34.434-26.818 13.075 0 22.355 6.957 27.216 11.775 4.861-4.818 14.142-11.775 27.216-11.775 11.908 0 34.434 5.605 34.434 26.818v6.236c0 13.112-3.599 25.537-10.409 35.937-.469.716-.958 1.432-1.465 2.148-2.822 3.974-3.69 8.878-2.381 13.435 1.987 6.924 4.358 16.996 4.358 25.642.043.873 1.02 26.358-11.211 39.153-1.47 1.541-3.504 2.385-5.591 2.385zm-34.951-61.65c18.192 0 30.469 32.916 35.667 50.24 6.042-8.92 6.853-24.262 6.606-29.919-.005-7.754-2.172-16.892-3.993-23.233-2.11-7.351-.735-15.204 3.77-21.554.441-.617.858-1.233 1.261-1.845 5.79-8.849 8.854-19.481 8.854-30.74v-6.235c0-17.039-23.925-17.328-24.959-17.333-14.521.005-23.237 12.083-23.323 12.207-.892 1.257-2.338 2.011-3.879 2.011-.005 0-.009 0-.019 0-1.546-.005-2.997-.759-3.879-2.025-.076-.109-8.797-12.192-23.323-12.192-1.01.005-24.949.294-24.949 17.333v6.236c0 11.263 3.064 21.891 8.859 30.74.398.612.816 1.224 1.252 1.835 4.515 6.355 5.89 14.213 3.775 21.559-1.821 6.34-3.988 15.484-3.988 23.024-.242 5.852.583 21.222 6.601 30.123 5.198-17.315 17.476-50.232 35.667-50.232z"/><path d="m180.206 87.731c-2.618 0-4.742-2.125-4.742-4.742s2.125-4.742 4.742-4.742c5.378 0 12.43-8.133 15-12.074 1.427-2.191 4.372-2.817 6.563-1.38 2.191 1.432 2.812 4.368 1.38 6.563-1.095 1.674-11.03 16.375-22.943 16.375z"/><path d="m99.587 125.669h-28.454c-2.618 0-4.742-2.125-4.742-4.742v-18.969c0-2.618 2.125-4.742 4.742-4.742h28.454c2.618 0 4.742 2.125 4.742 4.742v18.969c0 2.618-2.125 4.742-4.742 4.742zm-23.712-9.484h18.969v-9.485h-18.969z"/><path d="m132.783 116.185h-33.196c-2.618 0-4.742-2.125-4.742-4.742 0-2.618 2.125-4.742 4.742-4.742h33.196c2.618 0 4.742 2.125 4.742 4.742s-2.125 4.742-4.742 4.742z"/><path d="m71.133 116.185h-33.197c-2.618 0-4.742-2.125-4.742-4.742 0-2.618 2.125-4.742 4.742-4.742h33.196c2.618 0 4.742 2.125 4.742 4.742.001 2.617-2.124 4.742-4.741 4.742z"/><path d="m213.402 125.669h-28.454c-2.618 0-4.742-2.125-4.742-4.742v-18.969c0-2.618 2.125-4.742 4.742-4.742h28.454c2.618 0 4.742 2.125 4.742 4.742v18.969c0 2.618-2.124 4.742-4.742 4.742zm-23.712-9.484h18.969v-9.485h-18.969z"/><path d="m246.598 116.185h-33.196c-2.618 0-4.742-2.125-4.742-4.742 0-2.618 2.125-4.742 4.742-4.742h33.196c2.618 0 4.742 2.125 4.742 4.742.001 2.617-2.124 4.742-4.742 4.742z"/><path d="m184.948 116.185h-33.196c-2.618 0-4.742-2.125-4.742-4.742 0-2.618 2.125-4.742 4.742-4.742h33.196c2.618 0 4.742 2.125 4.742 4.742s-2.124 4.742-4.742 4.742z"/><path d="m279.794 234.742h-275.054c-1.423 0-2.765-.635-3.666-1.736-.901-1.095-1.261-2.542-.982-3.936l18.969-94.846c.441-2.219 2.385-3.813 4.647-3.813h18.931c1.47 0 2.855.683 3.751 1.84.896 1.162 1.209 2.675.839 4.093-.038.194-.081.398-.142.607-1.831 6.369-3.998 15.512-3.998 23.057-.242 5.852.583 21.222 6.601 30.123 5.198-17.324 17.475-50.235 35.667-50.235s30.469 32.912 35.667 50.24c6.046-8.92 6.853-24.262 6.606-29.919-.005-7.749-2.172-16.892-3.993-23.233-.038-.123-.133-.541-.157-.669-.28-1.394.057-2.954.958-4.055.901-1.095 2.224-1.85 3.642-1.85h28.373c1.465 0 2.845.678 3.742 1.831.896 1.157 1.214 2.66.854 4.078-.038.209-.085.422-.147.635-1.831 6.369-3.998 15.512-3.998 23.057-.242 5.852.583 21.222 6.601 30.123 5.198-17.333 17.475-50.24 35.667-50.24s30.469 32.916 35.667 50.24c6.042-8.92 6.853-24.262 6.606-29.919-.005-7.754-2.172-16.892-3.993-23.233-.038-.123-.133-.541-.157-.669-.28-1.394.057-2.954.958-4.05.901-1.095 2.219-1.854 3.637-1.854h18.931c2.262 0 4.206 1.593 4.647 3.813l18.969 94.846c.28 1.394-.081 2.841-.982 3.936-.896 1.103-2.238 1.738-3.661 1.738zm-269.268-9.484h263.483l-17.072-85.362h-8.892c1.518 6.165 2.883 13.549 2.883 20.112.043.873 1.02 26.358-11.211 39.153-1.906 1.997-4.766 2.836-7.46 2.153-2.703-.669-4.856-2.746-5.61-5.411-6.345-22.407-17.646-46.522-27.472-46.522s-21.132 24.115-27.472 46.522c-.754 2.665-2.902 4.742-5.605 5.411-2.698.683-5.558-.156-7.464-2.153-12.23-12.795-11.254-38.285-11.206-39.361-.005-6.393 1.356-13.72 2.879-19.903h-16.076c1.513 6.151 2.883 13.544 2.883 20.112.043.868 1.024 26.358-11.211 39.153-1.911 1.997-4.776 2.826-7.46 2.153-2.703-.673-4.851-2.746-5.61-5.411-6.345-22.407-17.646-46.522-27.472-46.522s-21.127 24.115-27.472 46.522c-.754 2.665-2.902 4.742-5.61 5.411-2.698.678-5.558-.156-7.46-2.153-12.23-12.795-11.254-38.285-11.206-39.361-.005-6.388 1.352-13.715 2.879-19.903h-8.892z"/></svg>