<svg id="Capa_1" enable-background="new 0 0 512 512" height="512" viewBox="0 0 512 512" width="512" xmlns="http://www.w3.org/2000/svg"><g><g><g><path d="m417.718 277.612-22.818 62.944s-5.882 103.224-52.972 107.932h-171.855c-47.09-4.708-52.972-107.932-52.972-107.932l-22.819-62.944c-3.781-10.446-5.625-21.273-5.625-32.008 0-24.302 9.436-48.14 27.104-66.045 24.683-25.003 61.255-34.151 94.797-23.715l21.603 6.717 17.235 5.367c4.296 1.339 8.911 1.339 13.207 0l38.838-12.084c9.179-2.854 18.574-4.244 27.908-4.244 24.755 0 48.954 9.797 66.89 27.959 25.476 25.806 33.831 63.964 21.479 98.053z" fill="#fff9e2"/></g></g><path d="m396.241 179.562c-24.684-25.005-61.254-34.153-94.803-23.715l-.984.306c14.11 4.556 27.194 12.463 37.999 23.409 25.471 25.803 33.828 63.957 21.474 98.045l-22.813 62.949s-5.886 103.221-52.971 107.93h57.788c47.086-4.709 52.971-107.93 52.971-107.93l22.813-62.949c12.354-34.087 3.998-72.241-21.474-98.045z" fill="#fff5c6"/><path d="m78.968 329.77s3.99-37.888 39.815-34.903 76.215 20.721 102.416 27.47c42.874 11.045 34.713 49.727 34.713 49.727h-176.944z" fill="#9facba"/><path d="m221.199 322.338c-26.201-6.75-66.592-24.485-102.416-27.47-7.302-.609-13.281.482-18.174 2.603 30.698 5.986 62.4 19.241 84.242 24.867 42.874 11.045 34.713 49.727 34.713 49.727h36.348s8.161-38.683-34.713-49.727z" fill="#8d9ca8"/><path d="m447.166 328.728c-.012-25.848-8.944-45.802-29.45-51.12s-59.443 34.31-78.013 44.73c-30.849 17.311-26.099 44.92-26.099 44.92h133.561v-38.53z" fill="#9facba"/><path d="m417.715 277.607c-6.483-1.681-14.81 1.133-23.752 6.094 11.616 8.967 16.845 25.271 16.854 45.027v38.529h36.348v-38.529c-.011-25.848-8.943-45.802-29.45-51.121z" fill="#8d9ca8"/><g><path d="m394.902 340.556c33.789-15.926 71.34-14.711 106.522-2.86 6.309 2.125 10.576 8.019 10.576 14.676v144.046c0 7.272-5.895 13.167-13.167 13.167h-485.666c-7.272 0-13.167-5.895-13.167-13.167v-144.082c0-6.647 4.256-12.533 10.551-14.667 35.175-11.927 72.666-12.771 106.547 2.887 0 0 133.375 70.923 277.804 0z" fill="#fd8087"/></g><g><path d="m512 352.372v144.05c0 7.263-5.893 13.166-13.166 13.166h-33.563c7.273 0 13.166-5.903 13.166-13.166v-144.05c0-6.655-4.265-12.548-10.58-14.68-11.538-3.884-23.313-6.624-35.139-7.994 22.808-2.802 46.235.433 68.703 7.994 6.314 2.132 10.579 8.025 10.579 14.68z" fill="#fe646f"/></g><path d="m450.095 11.36-40.145 77.474-35.038-5.44-30.914-21.963 15.943-49.856c1.746-5.459 6.819-9.163 12.55-9.163h72.163c4.595 0 7.555 4.869 5.441 8.948z" fill="#99e6fc"/><path d="m416.332 2.412c4.686 1.466 6.913 6.808 4.653 11.168l-34.042 65.695 5.003 6.764 18.003 2.795 40.145-77.474c2.114-4.079-.847-8.948-5.441-8.948h-28.321z" fill="#62dbfb"/><g><path d="m301.287 293.33c1.219 3.025-2.161 5.858-4.916 4.111-4.737-3.002-10.622-7.462-15.919-13.584-14.894-17.212-17.856-39.301-8.342-62.196 9.108-21.916 24.945-33.483 36.627-39.327 7.02-3.511 12.474-9.267 15.357-16.204l22.723-54.681h13.822l11.863 10.674-22.723 54.681c-5.447 13.107-15.603 23.906-28.599 30.407-10.844 5.425-18.838 13.826-23.386 25.124-9.192 22.707-1.773 47.928 3.493 60.995z" fill="#8d9ca8"/></g><path d="m409.948 88.836-65.954-27.408-10.947 26.344c-3.514 8.455.492 18.158 8.948 21.672l35.334 14.684c8.455 3.514 18.158-.492 21.672-8.948z" fill="#eaf6ff"/><path d="m343.994 61.429-4.117 9.908 34.611 14.383c4.179 1.737 6.223 6.479 4.615 10.71l-3.767 9.909c-2.787 6.707-9.47 10.598-16.335 10.173l18.328 7.617c8.455 3.514 18.158-.492 21.672-8.948l10.947-26.344z" fill="#c8effe"/><g><g><path d="m262.603 167.928c-4.584 1.937-41.382 17.142-65.726 17.142-3.039 0-5.882-.237-8.447-.762-4.172-.865-6.861-4.945-6.006-9.127.865-4.183 4.955-6.871 9.127-6.006 9.282 1.916 25.93-1.988 40.61-6.614l17.235 5.367c4.296 1.34 8.912 1.34 13.207 0z" fill="#fff5c6"/></g></g><g><path d="m296.028 409.281c-6.238 0-10.041-.369-10.528-.42-4.244-.438-7.33-4.233-6.892-8.478.438-4.243 4.22-7.323 8.471-6.893.512.047 36.628 3.389 75.41-13.369 3.92-1.693 8.465.111 10.157 4.028 1.693 3.917-.111 8.464-4.028 10.157-29.95 12.943-57.96 14.975-72.59 14.975z" fill="#fe646f"/></g></g></svg>