<?xml version="1.0" encoding="UTF-8"?>
<svg version="1.1" xmlns="http://www.w3.org/2000/svg" width="650" height="520">
<path d="M0 0 C214.5 0 429 0 650 0 C650 171.6 650 343.2 650 520 C435.5 520 221 520 0 520 C0 348.4 0 176.8 0 0 Z " fill="#F9FBFD" transform="translate(0,0)"/>
<path d="M0 0 C9.38139291 5.7918846 21.53374235 12.5 32.8125 12.5 C31.86890625 12.02691406 30.9253125 11.55382812 29.953125 11.06640625 C19.59586797 5.77055901 9.95365277 -0.03472639 1.8125 -8.5 C2.44671875 -8.73332031 3.0809375 -8.96664062 3.734375 -9.20703125 C9.77580898 -11.568531 15.29069363 -14.28735555 20.8972168 -17.53466797 C35.29535568 -25.84006245 50.77556874 -32.38326156 67.703125 -28.90625 C76.95972909 -26.11375491 83.88621837 -19.84685207 89.1875 -11.875 C101.87139697 11.83523923 96.41882163 41.94533403 89.05776978 66.5071106 C65.56635577 143.12172699 65.56635577 143.12172699 37.8125 161.5 C31.62645349 164.2627907 31.62645349 164.2627907 27.8125 163.5 C20.64645969 157.35767973 20.09091523 147.82620454 18.9375 138.9375 C17.56627025 129.55244395 13.93210348 120.95731478 6.8125 114.5 C2.26089015 111.14047844 -2.53754717 110.69321407 -8.07421875 110.82421875 C-13.89538202 112.08778368 -17.52648495 115.98974365 -21.1875 120.5 C-22.60793644 122.88322467 -23.39036852 124.82391574 -24.1875 127.5 C-42.09180059 126.84893452 -60.2531778 116.75108692 -74.8125 106.9375 C-75.78908569 106.28551636 -75.78908569 106.28551636 -76.78540039 105.62036133 C-84.88406247 99.96550605 -88.99881903 93.85961801 -92.1875 84.5625 C-92.52217285 83.61536133 -92.8568457 82.66822266 -93.20166016 81.69238281 C-96.93273377 70.82445328 -99.67559955 59.70393864 -102.1875 48.5 C-102.38327637 47.70480957 -102.57905273 46.90961914 -102.78076172 46.09033203 C-104.47749729 38.71460283 -104.57339219 31.42044717 -104.5625 23.875 C-104.56162384 23.21180756 -104.56074768 22.54861511 -104.55984497 21.86532593 C-104.49491929 6.97443039 -103.24988478 -6.68163043 -93.1875 -18.5 C-64.52357184 -45.61587629 -26.23684451 -16.49173083 0 0 Z " fill="#2F71DD" transform="translate(329.1875,113.5)"/>
<path d="M0 0 C4.57989887 4.30592137 5.96226979 10.18111498 8 16 C8.43828125 17.23621094 8.8765625 18.47242188 9.328125 19.74609375 C14.16887054 33.93766354 16.23870486 48.07966615 16.3125 63.0625 C16.31805908 64.0016626 16.32361816 64.9408252 16.3293457 65.90844727 C16.26459028 72.1465533 15.43382661 77.93486546 14 84 C13.78859375 84.93070312 13.5771875 85.86140625 13.359375 86.8203125 C4.22654275 121.36115243 -16.17294384 148.1298282 -46.68554688 166.5612793 C-59.85991655 174.21150177 -74.99124613 180.26552841 -90 183 C-91.10601562 183.20238281 -92.21203125 183.40476562 -93.3515625 183.61328125 C-109.15453779 186.10047329 -124.46616738 185.85642712 -140 182 C-140.98742187 181.80664062 -141.97484375 181.61328125 -142.9921875 181.4140625 C-158.03359362 178.2753409 -171.05642621 170.375396 -183 161 C-183.76828125 160.40445313 -184.5365625 159.80890625 -185.328125 159.1953125 C-193.50709431 152.46537319 -199.6141559 143.78007262 -205.5 135.0625 C-205.9336084 134.42376953 -206.3672168 133.78503906 -206.81396484 133.12695312 C-208.81145343 130.10467998 -210.256781 127.53847338 -211 124 C-208.60689054 126.31591238 -206.31319167 128.63107082 -204.15625 131.171875 C-185.90775544 152.55257386 -159.85400701 165.34665247 -132 168 C-102.44527263 170.26566014 -71.96525239 160.68536445 -49 142 C-46.29127833 139.60180858 -43.62264214 137.17536663 -40.99609375 134.6875 C-39 133 -39 133 -37 133 C-36.73316406 132.40960938 -36.46632813 131.81921875 -36.19140625 131.2109375 C-34.97920482 128.9614096 -33.69825169 127.46483983 -31.9375 125.625 C-21.2945772 113.69605736 -13.83616464 98.91679841 -9.1640625 83.734375 C-8.45283964 81.45273388 -7.68888037 79.18566003 -6.8359375 76.953125 C-3.44415318 67.33900255 -3.50763066 57.7801471 -3.29199219 47.67114258 C-3.13280579 40.21575331 -2.65078519 33.14204898 -1.4765625 25.78125 C-0.40073745 17.24519553 -0.28970892 8.59352019 0 0 Z " fill="#4180E7" transform="translate(431,131)"/>
<path d="M0 0 C3.37396432 1.44598471 5.79701565 3.03008886 8 6 C7.734375 8.91015625 7.734375 8.91015625 6.75 12.0625 C5.39546162 16.45733943 5.39546162 16.45733943 5 21 C6.65 17.04 8.3 13.08 10 9 C13.11089621 10.55544811 16.03851491 12.19020355 19 14 C18.7834375 14.61488281 18.566875 15.22976562 18.34375 15.86328125 C18.0653125 16.67152344 17.786875 17.47976562 17.5 18.3125 C17.2215625 19.11300781 16.943125 19.91351563 16.65625 20.73828125 C15.86066893 23.08769422 15.86066893 23.08769422 16 26 C17.98 23.03 19.96 20.06 22 17 C23.32 17.66 24.64 18.32 26 19 C25.41196203 22.02419525 24.77321882 25.01758453 24 28 C24.5775 27.01 25.155 26.02 25.75 25 C26.4925 24.01 27.235 23.02 28 22 C32.67325155 22 34.82359047 23.07242637 39 25 C38.67 27.64 38.34 30.28 38 33 C39.32 31.02 40.64 29.04 42 27 C46.62 28.65 51.24 30.3 56 32 C55.67 34.97 55.34 37.94 55 41 C56.65 38.36 58.3 35.72 60 33 C68.25 33.66 76.5 34.32 85 35 C84.35920648 38.20396759 83.69922464 41.26285824 82.84375 44.3984375 C82.51697266 45.61273438 82.51697266 45.61273438 82.18359375 46.8515625 C81.72983596 48.52657696 81.27412336 50.20106314 80.81640625 51.875 C78.7596045 59.54236747 77.85093638 67.02798753 77.4375 74.9375 C77.37272461 76.10635742 77.37272461 76.10635742 77.30664062 77.29882812 C77.20171923 79.19907117 77.1004755 81.09951669 77 83 C58.24852057 89.25049314 34.47014488 80.33564532 17.8125 72.1875 C11.0321201 68.75534626 4.8924393 64.82432342 -1 60 C-1.93585938 59.23945313 -2.87171875 58.47890625 -3.8359375 57.6953125 C-11.28365206 51.30864221 -19.22826256 43.43258786 -21.4375 33.5 C-21.68761594 23.62042024 -12.01487016 14.0598779 -6 7 C-5.39285156 6.28199219 -4.78570312 5.56398437 -4.16015625 4.82421875 C-2.78333251 3.2076657 -1.39333913 1.60234 0 0 Z " fill="#387BE6" transform="translate(240,212)"/>
<path d="M0 0 C1.23717773 0.00563965 2.47435547 0.0112793 3.74902344 0.01708984 C23.00272855 0.26970406 39.86385054 3.59144262 56.625 13.3125 C58.89485894 14.07290572 58.89485894 14.07290572 60.625 14.3125 C60.625 15.3025 60.625 16.2925 60.625 17.3125 C59.58601563 17.54324219 58.54703125 17.77398437 57.4765625 18.01171875 C56.06705629 18.33834471 54.65824644 18.6679846 53.25 19 C52.51265625 19.17208984 51.7753125 19.34417969 51.015625 19.52148438 C46.71136006 20.58999927 43.37522876 21.87034072 39.625 24.3125 C35.11699591 26.79265609 31.76346995 26.08906875 27 24.75 C25.614956 24.3403691 24.2308468 23.92756517 22.84765625 23.51171875 C10.69773134 19.88106173 -2.82496438 19.28129368 -15.32421875 20.94140625 C-25.76366864 22.28637771 -33.2315512 22.5433177 -43.04296875 18.5625 C-47.7710043 16.78879382 -52.35973384 16.42719424 -57.375 16.3125 C-53.34192028 12.72841549 -49.31538473 10.73402569 -44.375 8.75 C-43.25158203 8.29330933 -43.25158203 8.29330933 -42.10546875 7.82739258 C-35.65304948 5.27926406 -29.18194628 3.63134584 -22.375 2.3125 C-21.7464209 2.14548584 -21.1178418 1.97847168 -20.47021484 1.80639648 C-13.65434438 0.0544792 -7.0114883 -0.03335174 0 0 Z " fill="#508BE9" transform="translate(319.375,61.6875)"/>
<path d="M0 0 C4.92113494 3.14952636 7.30121205 7.52863615 9.125 13 C10.06141435 21.42772916 7.23907535 26.75521364 3.125 34 C2.69960938 34.76570313 2.27421875 35.53140625 1.8359375 36.3203125 C0.9518248 37.89136168 0.04210376 39.44797825 -0.875 41 C-5.17577123 40.40472211 -8.24159257 38.86441115 -11.98046875 36.69140625 C-12.54574783 36.36462387 -13.11102692 36.03784149 -13.69343567 35.70115662 C-14.88114291 35.01268736 -16.06688303 34.32081445 -17.25073242 33.62573242 C-19.06303498 32.56218605 -20.88145868 31.50979085 -22.70117188 30.45898438 C-31.57196255 25.30303745 -31.57196255 25.30303745 -33.875 23 C-33.29028319 18.70142217 -30.86428694 15.16954263 -28.6875 11.5 C-28.31302734 10.83613281 -27.93855469 10.17226563 -27.55273438 9.48828125 C-21.66262206 -0.46432 -10.98165697 -3.77343279 0 0 Z " fill="#6CC6EC" transform="translate(472.875,256)"/>
<path d="M0 0 C0.11668214 3.87474457 0.18741231 7.74903396 0.25 11.625 C0.30027344 13.26662109 0.30027344 13.26662109 0.3515625 14.94140625 C0.42690637 21.15727513 0.35816066 25.16964076 -4 30 C-4.55558594 30.62648437 -5.11117187 31.25296875 -5.68359375 31.8984375 C-10.82109112 36.22354664 -15.29220049 36.8466571 -21.93359375 36.5234375 C-27.53487359 35.56729546 -30.44695885 33.03501944 -33.8125 28.625 C-36.596096 22.4717878 -37.35060708 16.73367793 -37.625 10.0625 C-37.66367188 9.28326172 -37.70234375 8.50402344 -37.7421875 7.70117188 C-37.83544127 5.80112621 -37.91875962 3.90059722 -38 2 C-34.16908008 0.82807334 -30.28635384 0.65704246 -26.3125 0.4375 C-25.57588135 0.3950415 -24.8392627 0.35258301 -24.08032227 0.30883789 C-16.05362782 -0.11335146 -8.03488429 -0.09050558 0 0 Z " fill="#69C6ED" transform="translate(174,183)"/>
<path d="M0 0 C5.10722439 3.52641684 9.61365366 7.68931876 11.1328125 13.8828125 C12.1390656 20.19865641 11.02928238 24.42997092 7.26171875 29.73046875 C4.34371941 33.38739299 2.18719061 35.39734486 -2.375 36.8125 C-8.59072304 37.50916765 -14.09263503 37.45984724 -19.375 33.8125 C-24.1567711 29.80915676 -26.92998471 25.65304293 -27.66015625 19.3515625 C-27.84129735 14.10634637 -27.45710286 10.23018077 -24.375 5.8125 C-17.33879016 -1.26312839 -9.56298832 -3.36475515 0 0 Z " fill="#6CC8EE" transform="translate(246.375,315.1875)"/>
<path d="M0 0 C7.26 0 14.52 0 22 0 C22 0.66 22 1.32 22 2 C22.8971875 2.37125 22.8971875 2.37125 23.8125 2.75 C26.40814705 4.23322689 27.45877952 5.44008109 29 8 C29.2578125 10.76171875 29.2578125 10.76171875 29.125 13.6875 C29.05467178 15.45742676 29.00585558 17.22868622 29 19 C29.33 19.33 29.66 19.66 30 20 C30.534289 24.0529637 30.93106035 28.22774999 28.98828125 31.92578125 C26.42177929 35.03178813 23.77140924 37.82958409 19.63989258 38.22705078 C18.73392334 38.21657715 17.8279541 38.20610352 16.89453125 38.1953125 C15.56578979 38.18781982 15.56578979 38.18781982 14.21020508 38.18017578 C12.52834106 38.15286377 12.52834106 38.15286377 10.8125 38.125 C7.244375 38.08375 3.67625 38.0425 0 38 C0 25.46 0 12.92 0 0 Z " fill="#6ECAF0" transform="translate(305,336)"/>
<path d="M0 0 C7.36654804 17.40213523 7.36654804 17.40213523 5 25 C2.53544346 28.0482673 0.25012376 29.83325083 -3 32 C-5.12109375 32.1953125 -5.12109375 32.1953125 -7.4375 32.125 C-8.19933594 32.10695313 -8.96117187 32.08890625 -9.74609375 32.0703125 C-10.48988281 32.04710937 -11.23367187 32.02390625 -12 32 C-15.99305322 31.54059419 -15.99305322 31.54059419 -18.0703125 33.96875 C-18.74835938 34.8040625 -19.42640625 35.639375 -20.125 36.5 C-21.37823386 38.03225574 -22.66240608 39.54080663 -24 41 C-24.66 41 -25.32 41 -26 41 C-26.53394179 39.5882217 -27.05165104 38.17029756 -27.5625 36.75 C-27.85253906 35.96109375 -28.14257812 35.1721875 -28.44140625 34.359375 C-29.06513645 31.72487823 -29.02172912 30.49014384 -28 28 C-26.625 26.40234375 -26.625 26.40234375 -25 24.9375 C-22.67846849 22.83361207 -22.03199152 22.09597457 -21 19 C-22.051875 19.495 -23.10375 19.99 -24.1875 20.5 C-27.25452609 21.82779788 -29.62134936 22.30715006 -33 22 C-34.19287411 18.12315913 -35 15.08378077 -35 11 C-34.30962646 10.7733667 -33.61925293 10.5467334 -32.90795898 10.31323242 C-29.75006811 9.27454659 -26.59378167 8.23106505 -23.4375 7.1875 C-22.35146484 6.83107422 -21.26542969 6.47464844 -20.14648438 6.10742188 C-13.46997345 3.90655962 -13.46997345 3.90655962 -6.97265625 1.23828125 C-4 0 -4 0 0 0 Z " fill="#6AC5EC" transform="translate(178,225)"/>
<path d="M0 0 C1.76315804 6.14324984 3.51982161 12.28831359 5.26904297 18.43554688 C5.86480799 20.52569909 6.46496375 22.6145994 7.06640625 24.703125 C7.33324219 25.64671875 7.60007812 26.5903125 7.875 27.5625 C8.21144531 28.74005859 8.21144531 28.74005859 8.5546875 29.94140625 C9 32 9 32 9 36 C5.37 36.66 1.74 37.32 -2 38 C-2.99 33.71 -3.98 29.42 -5 25 C-6.0725 25.33 -7.145 25.66 -8.25 26 C-12 27 -12 27 -16 27 C-15.67 28.175625 -15.34 29.35125 -15 30.5625 C-14.0030467 34.5011676 -13.83130797 37.95139129 -14 42 C-17.3 42.66 -20.6 43.32 -24 44 C-26.37512865 37.13138471 -28.35827152 30.21986727 -30.1875 23.1875 C-30.46013672 22.16462891 -30.73277344 21.14175781 -31.01367188 20.08789062 C-31.27083984 19.10369141 -31.52800781 18.11949219 -31.79296875 17.10546875 C-32.0252417 16.22012451 -32.25751465 15.33478027 -32.49682617 14.42260742 C-33 12 -33 12 -33 8 C-29.17010894 6.19769832 -26.21878192 5.80377759 -22 6 C-21.34 9.63 -20.68 13.26 -20 17 C-14.555 16.01 -14.555 16.01 -9 15 C-9.60825035 10.65535464 -10.26167392 6.32448133 -11 2 C-7.1389146 0.56331706 -4.103573 -0.11185208 0 0 Z " fill="#69C7EF" transform="translate(375,328)"/>
<path d="M0 0 C0 6.93 0 13.86 0 21 C4.94997732 22.22769241 4.94997732 22.22769241 9.90063477 23.45263672 C14.29549961 24.54701239 18.6521074 25.7316266 23 27 C21.49339548 30.83499332 19.43425048 32.75944762 16 35 C12.7734375 35.20703125 12.7734375 35.20703125 9.375 34.8125 C8.24835938 34.69519531 7.12171875 34.57789063 5.9609375 34.45703125 C3 34 3 34 0 33 C0.66 34.0725 1.32 35.145 2 36.25 C3.88295807 39.30980686 4 40.1335864 4 44 C2.21722256 46.01623639 0.16873843 47.37344618 -2 49 C-5.08594534 47.66544809 -6.77005288 46.37427237 -8.734375 43.65625 C-9.22260742 42.99109375 -9.71083984 42.3259375 -10.21386719 41.640625 C-10.72079102 40.93421875 -11.22771484 40.2278125 -11.75 39.5 C-12.81122926 38.0511517 -13.87373171 36.60323512 -14.9375 35.15625 C-15.45570313 34.44855469 -15.97390625 33.74085938 -16.5078125 33.01171875 C-19.54963 28.91083914 -22.76920076 24.9529779 -26 21 C-24.31847927 17.25979502 -22.30960527 15.43865652 -19 13 C-15.59937986 14.40715316 -14.10770302 16.02868228 -12 19 C-12.03222656 18.21496094 -12.06445312 17.42992187 -12.09765625 16.62109375 C-12.0044749 8.18300462 -12.0044749 8.18300462 -9 4.64453125 C-3.02435567 0 -3.02435567 0 0 0 Z " fill="#6CC6EC" transform="translate(424,296)"/>
<path d="M0 0 C3.63 0.66 7.26 1.32 11 2 C10.30654365 8.2484067 9.20358931 14.34403221 7.9375 20.5 C7.75123047 21.4178125 7.56496094 22.335625 7.37304688 23.28125 C6.91801873 25.52138854 6.46028733 27.76093726 6 30 C8.31 30 10.62 30 13 30 C13.12375 29.19046875 13.2475 28.3809375 13.375 27.546875 C14.10436195 23.40774592 15.0321714 19.33872519 16 15.25 C16.17789062 14.48300781 16.35578125 13.71601563 16.5390625 12.92578125 C17.87634967 7.24730066 17.87634967 7.24730066 19 5 C22.63 5.66 26.26 6.32 30 7 C28.95478433 13.74639202 27.50890147 20.30137718 25.6875 26.875 C25.49905518 27.60001709 25.31061035 28.32503418 25.11645508 29.07202148 C23.73357173 33.89173565 22.03835171 36.78642511 18 40 C16.01953125 40.78515625 16.01953125 40.78515625 14 41 C12.73736328 41.15275391 12.73736328 41.15275391 11.44921875 41.30859375 C6.44214029 41.54230463 2.92669289 41.58095636 -1.0625 38.3125 C-3.59329765 35.69673552 -5.33604395 33.65175828 -6 30 C-5.72836399 22.91420431 -4.24366683 16.20504263 -2.4375 9.375 C-2.20353516 8.46621094 -1.96957031 7.55742187 -1.72851562 6.62109375 C-1.15889545 4.41236248 -0.58039379 2.20592475 0 0 Z " fill="#6BC9F0" transform="translate(269,328)"/>
<path d="M0 0 C7.625 0.875 7.625 0.875 11 2 C10.01 6.29 9.02 10.58 8 15 C8.66 15 9.32 15 10 15 C10.13277344 14.36191406 10.26554687 13.72382813 10.40234375 13.06640625 C10.57894531 12.24011719 10.75554687 11.41382813 10.9375 10.5625 C11.19853516 9.32693359 11.19853516 9.32693359 11.46484375 8.06640625 C12 6 12 6 13 5 C14.8125 4.8671875 14.8125 4.8671875 17 4.875 C17.721875 4.87242187 18.44375 4.86984375 19.1875 4.8671875 C21 5 21 5 22 6 C21.9140625 7.92578125 21.9140625 7.92578125 21.625 10.3125 C21.53476562 11.09238281 21.44453125 11.87226563 21.3515625 12.67578125 C21.02512033 14.83392672 20.56860512 16.89423359 20 19 C20.99 18.67 21.98 18.34 23 18 C24.02700444 15.67108904 24.02700444 15.67108904 24.6875 12.9375 C24.93886719 12.01839844 25.19023437 11.09929687 25.44921875 10.15234375 C25.63097656 9.44207031 25.81273437 8.73179687 26 8 C30.29299643 6.73735399 32.87831311 7.37049588 37 9 C32.96127563 25.8929385 32.96127563 25.8929385 30 33 C23.39419866 32.31307194 17.22655102 30.45256761 10.875 28.5625 C9.80378906 28.24990234 8.73257812 27.93730469 7.62890625 27.61523438 C2.99258804 26.24974339 -1.53161794 24.85280547 -6 23 C-4.38911645 15.21406284 -2.23456312 7.62571782 0 0 Z " fill="#6AC3EA" transform="translate(464,220)"/>
<path d="M0 0 C0.680625 -0.00257813 1.36125 -0.00515625 2.0625 -0.0078125 C4.8041298 0.1801218 6.58545184 0.73869357 8.60546875 2.62109375 C12.5709055 7.48732107 13.6244801 10.85122831 13.30859375 17.12109375 C13 19.125 13 19.125 12 20.125 C5.60465116 19.42732558 5.60465116 19.42732558 3 18.125 C2.33333333 16.125 1.66666667 14.125 1 12.125 C0.34 11.795 -0.32 11.465 -1 11.125 C-0.566875 12.15947266 -0.566875 12.15947266 -0.125 13.21484375 C4.64021351 25.27679045 4.64021351 25.27679045 3 31.125 C1.13413864 34.06388067 -0.81787556 35.71763057 -4 37.125 C-8.27687298 37.67055388 -12.06416417 37.19011469 -15.8671875 35.09765625 C-19.07315397 32.60146843 -21.52812014 29.88647074 -23 26.125 C-23.23431342 22.44367581 -23.17414782 18.80790399 -23 15.125 C-19.34811918 14.05325237 -16.73567172 14.36088533 -13 15.125 C-12.81824219 15.75148438 -12.63648438 16.37796875 -12.44921875 17.0234375 C-12.19785156 17.84070313 -11.94648438 18.65796875 -11.6875 19.5 C-11.44386719 20.31210937 -11.20023438 21.12421875 -10.94921875 21.9609375 C-10.08631815 24.45684629 -10.08631815 24.45684629 -7 26.125 C-7.3609375 25.3515625 -7.721875 24.578125 -8.09375 23.78125 C-13.11888112 12.50262238 -13.11888112 12.50262238 -12 6.125 C-8.49965871 1.67862053 -5.60822832 -0.02124329 0 0 Z " fill="#68C7EF" transform="translate(210,289.875)"/>
<path d="M0 0 C4.1810556 1.50549203 7.74042527 3.57898174 11.5 5.9375 C12.6034375 6.62714844 13.706875 7.31679687 14.84375 8.02734375 C16.73972416 9.2123276 18.61632597 10.4305435 20.44921875 11.7109375 C23.78658917 13.39751061 26.59239784 13.51366345 30.3125 13.6875 C31.56675781 13.75324219 32.82101562 13.81898438 34.11328125 13.88671875 C35.06589844 13.92410156 36.01851563 13.96148437 37 14 C37.0270043 15.45823212 37.04639787 16.91660675 37.0625 18.375 C37.07410156 19.18710938 37.08570313 19.99921875 37.09765625 20.8359375 C37 23 37 23 36 25 C31.05 25 26.1 25 21 25 C21 25.66 21 26.32 21 27 C19.88625 27.391875 18.7725 27.78375 17.625 28.1875 C13.29565043 29.79267774 9.27145011 31.8445501 5.19921875 34.01171875 C3 35 3 35 0 35 C0 35.66 0 36.32 0 37 C-0.66 37 -1.32 37 -2 37 C-2.60434442 32.8501683 -2.89091724 29.11918207 -2 25 C0.97498092 22.15028144 4.20484682 20.54516951 8 19 C5.38485683 16.87961365 2.80362384 14.86908256 0 13 C-0.29296875 9.9609375 -0.29296875 9.9609375 -0.1875 6.375 C-0.16042969 5.18648437 -0.13335937 3.99796875 -0.10546875 2.7734375 C-0.05326172 1.40058594 -0.05326172 1.40058594 0 0 Z " fill="#6DC8EE" transform="translate(468,179)"/>
<path d="M0 0 C2.76846847 1.38423423 2.95020915 2.90749907 4.125 5.75 C13.2750481 26.43823192 28.46822978 43.41379336 47.1015625 55.9765625 C49.35022716 57.546385 51.18083797 58.97440823 53 61 C38.20652387 59.63654598 27.03864918 50.14093527 17 40 C16.24847656 39.27039063 15.49695313 38.54078125 14.72265625 37.7890625 C7.08634138 29.90357805 0.55947457 18.2242762 -0.1953125 7.12890625 C-0.17210937 6.28199219 -0.14890625 5.43507813 -0.125 4.5625 C-0.09792969 3.26505859 -0.09792969 3.26505859 -0.0703125 1.94140625 C-0.04710937 1.30074219 -0.02390625 0.66007813 0 0 Z " fill="#397BE5" transform="translate(215,252)"/>
<path d="M0 0 C0.31227539 0.65484375 0.62455078 1.3096875 0.94628906 1.984375 C2.38009258 4.98994981 3.81503813 7.99497806 5.25 11 C5.74113281 12.02996094 6.23226563 13.05992187 6.73828125 14.12109375 C7.22167969 15.13300781 7.70507812 16.14492188 8.203125 17.1875 C8.67685547 18.18007813 9.15058594 19.17265625 9.63867188 20.1953125 C10.84126026 22.67295514 12.09038155 25.11851262 13.359375 27.5625 C15 31 15 31 15 34 C13.71086513 34.67154933 12.41859796 35.33708859 11.125 36 C10.40570313 36.37125 9.68640625 36.7425 8.9453125 37.125 C7 38 7 38 5 38 C2.87973469 33.6411909 0.7618767 29.28122371 -1.35375977 24.92016602 C-2.07380194 23.43677209 -2.79450069 21.95369668 -3.51586914 20.47094727 C-4.55267384 18.33953939 -5.58711134 16.20699691 -6.62109375 14.07421875 C-7.10551186 13.0803138 -7.10551186 13.0803138 -7.59971619 12.06632996 C-8.89032378 9.39937729 -10.06176085 6.81471745 -11 4 C-9.73308493 3.32591692 -8.46129251 2.66099503 -7.1875 2 C-6.47980469 1.62875 -5.77210938 1.2575 -5.04296875 0.875 C-3 0 -3 0 0 0 Z " fill="#6DC5EB" transform="translate(392,319)"/>
<path d="M0 0 C2.765625 -0.30859375 2.765625 -0.30859375 6 0 C7.984375 2.08984375 7.984375 2.08984375 9.75 4.9375 C22.68040744 24.00312912 47.38871955 36.13690179 69.61328125 40.75 C72.40530363 41.22244562 75.19035733 41.64944868 78 42 C77.01 42.495 77.01 42.495 76 43 C76 43.66 76 44.32 76 45 C86.23 45 96.46 45 107 45 C107 45.33 107 45.66 107 46 C78.89331681 49.83272953 51.38116192 43.64080621 28.25390625 27.02734375 C25.77358066 25.08100402 23.37864955 23.06907243 21 21 C19.71802734 19.9171875 19.71802734 19.9171875 18.41015625 18.8125 C12.86797832 14.01205716 8.25983146 8.96658512 4 3 C4.66 4.65 5.32 6.3 6 8 C5.34 8 4.68 8 4 8 C3.67 8.66 3.34 9.32 3 10 C0 3.375 0 3.375 0 0 Z " fill="#E0EBFA" transform="translate(217,253)"/>
<path d="M0 0 C0.33 0 0.66 0 1 0 C1.08917566 11.12147914 0.09817214 19.61126749 -5.2109375 29.47265625 C-8.82590098 36.59997507 -10.50771584 43.75322526 -11.625 51.625 C-11.74617187 52.43195313 -11.86734375 53.23890625 -11.9921875 54.0703125 C-12.33699545 56.37902659 -12.67073429 58.68902361 -13 61 C-13.15227051 62.06105957 -13.15227051 62.06105957 -13.30761719 63.14355469 C-13.53955077 64.76220695 -13.76996533 66.38107678 -14 68 C-14.33 68 -14.66 68 -15 68 C-15.56037377 42.70846392 -12.80321634 22.21191998 0 0 Z " fill="#2A71E3" transform="translate(218,119)"/>
<path d="M0 0 C2.4375 1.5625 2.4375 1.5625 4 4 C4.44902962 8.1909431 4.44565826 11.46738251 2 15 C-1.21804148 16.60902074 -4.51947705 16.59842983 -8 16 C-11.327349 13.25493707 -11.92106131 11.65406343 -12.4375 7.375 C-12 4 -12 4 -10.625 2.125 C-7.04162797 -0.35579602 -4.33688632 -0.37386951 0 0 Z " fill="#F4F8FB" transform="translate(242,325)"/>
<path d="M0 0 C3.23641034 2.73850106 3.92047274 4.3524209 4.4375 8.5625 C3.98985972 12.07967359 3.41561488 13.4837345 1 16 C-2.57040303 15.34097701 -5.17732255 13.83770842 -8.25 11.9375 C-9.14203125 11.38964844 -10.0340625 10.84179688 -10.953125 10.27734375 C-11.62859375 9.85582031 -12.3040625 9.43429687 -13 9 C-12.47518614 5.6333749 -12.24110049 4.26237407 -9.875 1.6875 C-6.22072483 -0.45740064 -4.17159379 -0.68262444 0 0 Z " fill="#F3F7FB" transform="translate(467,266)"/>
<path d="M0 0 C1.76923828 0.01353516 1.76923828 0.01353516 3.57421875 0.02734375 C4.47785156 0.03894531 5.38148438 0.05054688 6.3125 0.0625 C6.91606653 7.18458505 6.91606653 7.18458505 4.25 11.0625 C0.59920848 13.54814529 -1.35296502 13.70465333 -5.6875 13.0625 C-7.88342042 11.43227336 -8.59156209 10.48653091 -9.19921875 7.80078125 C-9.25722656 7.00027344 -9.31523437 6.19976562 -9.375 5.375 C-9.44074219 4.56675781 -9.50648438 3.75851563 -9.57421875 2.92578125 C-9.61160156 2.31089844 -9.64898437 1.69601563 -9.6875 1.0625 C-6.26517028 -0.07827657 -3.60076783 -0.03565117 0 0 Z " fill="#F6F9FC" transform="translate(157.6875,194.9375)"/>
<path d="M0 0 C0.66 0 1.32 0 2 0 C2.433125 0.7425 2.86625 1.485 3.3125 2.25 C5.16677714 5.27178496 7.15621943 6.92480878 10 9 C8.576875 9.8971875 8.576875 9.8971875 7.125 10.8125 C3.86035803 12.81562526 3.86035803 12.81562526 2 16 C-1.71866485 14.76044505 -3.32283886 12.81445146 -6 10 C-6.66 9.34 -7.32 8.68 -8 8 C-7.05125 7.4225 -6.1025 6.845 -5.125 6.25 C-2.23865902 4.17183449 -1.15904259 3.24531925 0 0 Z " fill="#EBF1FB" transform="translate(258,122)"/>
<path d="M0 0 C0.33 0 0.66 0 1 0 C1 11.22 1 22.44 1 34 C8.92 33.67 16.84 33.34 25 33 C21 37 21 37 18.61816406 37.45410156 C17.75932617 37.4331543 16.90048828 37.41220703 16.015625 37.390625 C15.17290039 37.38063477 14.33017578 37.37064453 13.46191406 37.36035156 C11.8720166 37.30572754 11.8720166 37.30572754 10.25 37.25 C5.17625 37.12625 5.17625 37.12625 0 37 C0 24.79 0 12.58 0 0 Z " fill="#6CA6CF" transform="translate(306,337)"/>
<path d="M0 0 C1.670625 0.061875 1.670625 0.061875 3.375 0.125 C4.91156962 2.5654341 5.39589707 3.83244102 5.1875 6.75 C4.375 9.125 4.375 9.125 1.375 11.125 C-1.1875 11.375 -1.1875 11.375 -3.625 11.125 C-5.625 9.125 -5.625 9.125 -5.875 5.625 C-5.52784563 0.76483889 -4.87441969 0.16808344 0 0 Z " fill="#77CBEF" transform="translate(165.625,272.875)"/>
<path d="M0 0 C0.99 0.33 1.98 0.66 3 1 C2.34 1 1.68 1 1 1 C0.88011719 2.29550781 0.76023437 3.59101563 0.63671875 4.92578125 C0.01011502 10.59183164 -1.34737183 16.01101538 -2.80273438 21.51367188 C-3.9595828 26.28413871 -4.30925973 29.43002354 -2 34 C-1.01 34.66 -0.02 35.32 1 36 C1 36.66 1 37.32 1 38 C8.47005253 39.15890535 14.02799149 39.04702594 21 36 C18.53650794 39.8184127 18.53650794 39.8184127 16.22265625 40.6015625 C11.08382931 41.52275819 5.55374424 42.34931877 0.796875 39.8359375 C-2.56629466 37.08039934 -5.20579642 34.36811969 -6 30 C-5.72836399 22.91420431 -4.24366683 16.20504263 -2.4375 9.375 C-2.20353516 8.46621094 -1.96957031 7.55742187 -1.72851562 6.62109375 C-1.15887311 4.41227583 -0.58265317 2.20541448 0 0 Z " fill="#80B6DA" transform="translate(269,328)"/>
<path d="M0 0 C1.80166872 1.04544991 3.59105379 2.1120877 5.375 3.1875 C6.87160156 4.07501953 6.87160156 4.07501953 8.3984375 4.98046875 C11.22694778 7.17617418 12.02735933 8.60747622 13 12 C9.89656201 10.79310745 6.98806107 9.49403054 4 8 C2.35 12.29 0.7 16.58 -1 21 C-1.33 21 -1.66 21 -2 21 C-1.59704317 16.41901705 -1.08835048 12.05343586 0.1875 7.625 C0.455625 6.42875 0.72375 5.2325 1 4 C0.34 3.01 -0.32 2.02 -1 1 C-0.67 0.67 -0.34 0.34 0 0 Z " fill="#E7EFFB" transform="translate(246,214)"/>
<path d="M0 0 C1.5 1.375 1.5 1.375 3 3 C3 3.66 3 4.32 3 5 C5.475 5.99 5.475 5.99 8 7 C6.8553125 7.8971875 6.8553125 7.8971875 5.6875 8.8125 C3.6516425 10.46959332 1.8021721 12.10297674 0 14 C-0.061875 13.071875 -0.061875 13.071875 -0.125 12.125 C-0.41375 11.42375 -0.7025 10.7225 -1 10 C-3.99615946 8.6954344 -3.99615946 8.6954344 -7 8 C-6.21625 7.4225 -5.4325 6.845 -4.625 6.25 C-2.19952756 4.17102363 -1.14305583 2.90959667 0 0 Z " fill="#E4EDF9" transform="translate(280,140)"/>
<path d="M0 0 C2.97 0 5.94 0 9 0 C9.38218767 1.65614657 9.71395102 3.32457024 10 5 C9 6 9 6 6.93359375 6.09765625 C6.10988281 6.08605469 5.28617187 6.07445312 4.4375 6.0625 C3.61121094 6.05347656 2.78492188 6.04445313 1.93359375 6.03515625 C1.29550781 6.02355469 0.65742188 6.01195312 0 6 C0 4.02 0 2.04 0 0 Z " fill="#8DBDDD" transform="translate(315,358)"/>
<path d="M0 0 C0.33 0 0.66 0 1 0 C1.10957031 0.67546875 1.21914062 1.3509375 1.33203125 2.046875 C1.49058594 2.93890625 1.64914063 3.8309375 1.8125 4.75 C1.96332031 5.63171875 2.11414063 6.5134375 2.26953125 7.421875 C3.31611243 11.11569094 4.78477402 13.21575533 8.015625 15.30078125 C13.2299802 17.6618267 16.41706293 18.42543074 22 17 C20.80078125 18.5 20.80078125 18.5 19 20 C14.17573454 20.53141651 9.41194105 19.80634013 5.5625 16.75 C0.82043993 11.66095993 -0.34073679 8.66055497 -0.10546875 1.79296875 C-0.07066406 1.20128906 -0.03585938 0.60960937 0 0 Z " fill="#7AAED4" transform="translate(187,307)"/>
<path d="M0 0 C2.17723742 2.17723742 2.41899846 3.00485979 3.0703125 5.9140625 C3.24433594 6.67460937 3.41835938 7.43515625 3.59765625 8.21875 C3.77167969 9.0128125 3.94570313 9.806875 4.125 10.625 C4.30675781 11.42679687 4.48851562 12.22859375 4.67578125 13.0546875 C5.12370789 15.03499476 5.56270604 17.0173177 6 19 C8.31 18.34 10.62 17.68 13 17 C13 14.36 13 11.72 13 9 C15.4294516 12.6441774 15.16179575 14.71241272 15 19 C11.7 19.66 8.4 20.32 5 21 C0 6.45454545 0 6.45454545 0 0 Z " fill="#8AB1D3" transform="translate(346,351)"/>
<path d="M0 0 C0.58265625 0.20496094 1.1653125 0.40992188 1.765625 0.62109375 C8.50503996 2.83577571 14.92947835 3.64768878 22 4 C19.27164512 6.72835488 17.62218855 6.36297215 13.8125 6.4375 C7.51288356 6.36765946 4.53021098 5.31950349 0 1 C0 0.67 0 0.34 0 0 Z " fill="#8DC3E3" transform="translate(142,213)"/>
<path d="M0 0 C1.65 1.65 3.3 3.3 5 5 C3.35 6.65 1.7 8.3 0 10 C-0.66 9.01 -1.32 8.02 -2 7 C-4.05003955 5.80767387 -4.05003955 5.80767387 -6 5 C-5.38125 4.731875 -4.7625 4.46375 -4.125 4.1875 C-1.7004767 3.04443152 -1.7004767 3.04443152 0 0 Z " fill="#DCE7F8" transform="translate(265,155)"/>
<path d="M0 0 C2.64 0.33 5.28 0.66 8 1 C7.01 1.495 7.01 1.495 6 2 C6 2.66 6 3.32 6 4 C6.99 4.33 7.98 4.66 9 5 C3.9697924 4.47462276 -1.01885239 3.89405214 -6 3 C-6 2.67 -6 2.34 -6 2 C-4.02 2 -2.04 2 0 2 C0 1.34 0 0.68 0 0 Z " fill="#D7E4F9" transform="translate(287,294)"/>
<path d="M0 0 C1.32 0 2.64 0 4 0 C4.33 2.31 4.66 4.62 5 7 C3.68 7 2.36 7 1 7 C0.34 5.02 -0.32 3.04 -1 1 C-0.67 0.67 -0.34 0.34 0 0 Z " fill="#F0F4F9" transform="translate(168,239)"/>
<path d="M0 0 C-3.625 3 -3.625 3 -7 3 C-7 2.34 -7 1.68 -7 1 C-12.61 1 -18.22 1 -24 1 C-24 0.67 -24 0.34 -24 0 C-20.3754207 -0.19632025 -16.75032733 -0.38055978 -13.125 -0.5625 C-12.09246094 -0.61857422 -11.05992187 -0.67464844 -9.99609375 -0.73242188 C-8.51689453 -0.80493164 -8.51689453 -0.80493164 -7.0078125 -0.87890625 C-6.09660645 -0.9260376 -5.18540039 -0.97316895 -4.24658203 -1.02172852 C-2 -1 -2 -1 0 0 Z " fill="#6BBCE4" transform="translate(331,371)"/>
<path d="M0 0 C3.28670403 3.28670403 5 7.35868331 5 12 C3.125 11.4375 3.125 11.4375 1 10 C-1.31355932 3.94067797 -1.31355932 3.94067797 0 0 Z " fill="#E6EEF6" transform="translate(198,304)"/>
<path d="M0 0 C0.66 0 1.32 0 2 0 C1.37679879 6.43974581 0.35991738 12.67572401 -1 19 C-1.33 19 -1.66 19 -2 19 C-2 15.04 -2 11.08 -2 7 C-1.34 7 -0.68 7 0 7 C0 4.69 0 2.38 0 0 Z " fill="#9CCCE7" transform="translate(276,338)"/>
<path d="M0 0 C4.44607497 1.77842999 5.9797308 2.64414533 9 6 C8.236875 5.690625 7.47375 5.38125 6.6875 5.0625 C4.81210323 4.32106407 2.91315348 3.63771783 1 3 C1.66 6.63 2.32 10.26 3 14 C2.01 13.67 1.02 13.34 0 13 C0 8.71 0 4.42 0 0 Z " fill="#7FC4E6" transform="translate(468,179)"/>
<path d="M0 0 C3 3 3 3 4 6 C3.34 6 2.68 6 2 6 C1.67 10.62 1.34 15.24 1 20 C0.67 20 0.34 20 0 20 C0 13.4 0 6.8 0 0 Z " fill="#94B8F2" transform="translate(431,131)"/>
<path d="M0 0 C0.66 0.33 1.32 0.66 2 1 C1.01 1.33 0.02 1.66 -1 2 C-0.67 3.65 -0.34 5.3 0 7 C1.65 7.33 3.3 7.66 5 8 C4.67 8.66 4.34 9.32 4 10 C1.625 10.125 1.625 10.125 -1 10 C-3 8 -3 8 -3.125 4.375 C-3.08375 3.26125 -3.0425 2.1475 -3 1 C-2.01 0.67 -1.02 0.34 0 0 Z " fill="#72B0D8" transform="translate(163,274)"/>
<path d="M0 0 C0.99 0.33 1.98 0.66 3 1 C-0.66666667 4.66666667 -4.33333333 8.33333333 -8 12 C-8.66 11.67 -9.32 11.34 -10 11 C-6.7 7.37 -3.4 3.74 0 0 Z " fill="#E1EBF4" transform="translate(163,255)"/>
<path d="M0 0 C2 3 2 3 1.609375 5.41015625 C1.32578125 6.28542969 1.0421875 7.16070312 0.75 8.0625 C0.47671875 8.94035156 0.2034375 9.81820312 -0.078125 10.72265625 C-1 13 -1 13 -3 15 C-2.5547115 9.72684667 -1.91626837 4.98229776 0 0 Z " fill="#C9DBF8" transform="translate(247,220)"/>
<path d="M0 0 C2.1446143 2.1446143 2.44564603 3.01739998 3.125 5.875 C3.29257812 6.55304688 3.46015625 7.23109375 3.6328125 7.9296875 C4 10 4 10 4 14 C3.34 14 2.68 14 2 14 C0.4087311 9.126739 -0.21192221 5.19209404 0 0 Z " fill="#9ACAE6" transform="translate(378,343)"/>
<path d="M0 0 C1.4800841 0.11362262 2.95910074 0.24122908 4.4375 0.375 C5.26121094 0.44460938 6.08492187 0.51421875 6.93359375 0.5859375 C7.95646484 0.79089844 7.95646484 0.79089844 9 1 C10.35439668 3.70879335 10.06501451 6.00933268 10 9 C7.8614515 6.8614515 7.57344937 5.86724686 7 3 C4.36 3 1.72 3 -1 3 C-0.67 2.01 -0.34 1.02 0 0 Z " fill="#92CDEB" transform="translate(188,304)"/>
<path d="M0 0 C0.99 0 1.98 0 3 0 C3 0.99 3 1.98 3 3 C3.66 3 4.32 3 5 3 C3.7508258 6.45925163 2.32472205 9.14693203 0 12 C0.14107747 10.54119891 0.28802415 9.08296449 0.4375 7.625 C0.51871094 6.81289062 0.59992188 6.00078125 0.68359375 5.1640625 C1 3 1 3 2 1 C1.34 0.67 0.68 0.34 0 0 Z " fill="#C7DAF7" transform="translate(294,243)"/>
<path d="M0 0 C0.66 0.33 1.32 0.66 2 1 C1.01 3.97 0.02 6.94 -1 10 C-1.66 10 -2.32 10 -3 10 C-2.88637738 8.5199159 -2.75877092 7.04089926 -2.625 5.5625 C-2.55539062 4.73878906 -2.48578125 3.91507813 -2.4140625 3.06640625 C-2.27742188 2.38449219 -2.14078125 1.70257813 -2 1 C-1.34 0.67 -0.68 0.34 0 0 Z " fill="#E9EFF6" transform="translate(475,225)"/>
<path d="M0 0 C0.79921875 0.00902344 1.5984375 0.01804687 2.421875 0.02734375 C3.02515625 0.03894531 3.6284375 0.05054688 4.25 0.0625 C3.92 0.7225 3.59 1.3825 3.25 2.0625 C0.92884289 2.47211596 -1.40834501 2.79378549 -3.75 3.0625 C-5.75097458 3.3899322 -7.75133314 3.72126419 -9.75 4.0625 C-9.42 3.0725 -9.09 2.0825 -8.75 1.0625 C-5.8585914 -0.0569613 -3.07237388 -0.04518197 0 0 Z " fill="#5696C7" transform="translate(366.75,351.9375)"/>
<path d="M0 0 C1.98 0.99 1.98 0.99 4 2 C4 3.65 4 5.3 4 7 C4.66 7.33 5.32 7.66 6 8 C5.34 8 4.68 8 4 8 C3.67 8.99 3.34 9.98 3 11 C2.49632243 9.54293274 1.99717444 8.08429904 1.5 6.625 C1.2215625 5.81289063 0.943125 5.00078125 0.65625 4.1640625 C0 2 0 2 0 0 Z " fill="#CADDEC" transform="translate(209,301)"/>
<path d="M0 0 C1.65 0.33 3.3 0.66 5 1 C4.2575 1.886875 3.515 2.77375 2.75 3.6875 C0.46359384 6.4298846 -1.77951375 9.20383213 -4 12 C-3.33501617 7.61110675 -1.81242323 4.0188515 0 0 Z " fill="#C5D9F7" transform="translate(266,231)"/>
<path d="M0 0 C5.841744 -0.35050464 9.8531808 -0.16727335 15 3 C15 3.33 15 3.66 15 4 C9.72684667 3.5547115 4.98229776 2.91626837 0 1 C0 0.67 0 0.34 0 0 Z " fill="#C2D6F4" transform="translate(349,123)"/>
<path d="M0 0 C0.66 0.33 1.32 0.66 2 1 C-0.97 3.97 -3.94 6.94 -7 10 C-7.66 9.67 -8.32 9.34 -9 9 C-8.06725891 7.87105124 -7.12859878 6.74699124 -6.1875 5.625 C-5.66542969 4.99851562 -5.14335937 4.37203125 -4.60546875 3.7265625 C-3 2 -3 2 0 0 Z " fill="#3470D0" transform="translate(242,90)"/>
<path d="M0 0 C2.64 0 5.28 0 8 0 C8 0.99 8 1.98 8 3 C5.36 3 2.72 3 0 3 C0 2.01 0 1.02 0 0 Z " fill="#EBF2F8" transform="translate(317,360)"/>
<path d="M0 0 C7.38461538 -0.49230769 7.38461538 -0.49230769 10.5 2 C10.995 2.66 11.49 3.32 12 4 C10.3733152 3.71788123 8.74867104 3.42397625 7.125 3.125 C5.76761719 2.88136719 5.76761719 2.88136719 4.3828125 2.6328125 C2 2 2 2 0 0 Z " fill="#679AEC" transform="translate(256,309)"/>
<path d="M0 0 C2.64752004 2.57784846 4.94432065 4.91648098 7 8 C6.34 8.66 5.68 9.32 5 10 C4.16121545 8.71186658 3.32913217 7.41936744 2.5 6.125 C2.0359375 5.40570313 1.571875 4.68640625 1.09375 3.9453125 C0 2 0 2 0 0 Z " fill="#5C93E9" transform="translate(220,255)"/>
<path d="M0 0 C4.19174654 1.04793663 5.21592961 1.91763635 8 5 C7.34 5.66 6.68 6.32 6 7 C4.02 4.69 2.04 2.38 0 0 Z " fill="#CDDEF8" transform="translate(228,264)"/>
<path d="M0 0 C0.66 0.33 1.32 0.66 2 1 C0.38405168 3.04119788 -1.2856382 5.04072937 -3 7 C-3.66 7 -4.32 7 -5 7 C-4.60196439 4.11424181 -4.20990931 3.17810487 -1.9375 1.25 C-1.298125 0.8375 -0.65875 0.425 0 0 Z " fill="#77C4E9" transform="translate(453,257)"/>
<path d="M0 0 C-0.33 1.65 -0.66 3.3 -1 5 C-1.66 4.67 -2.32 4.34 -3 4 C-2.67 3.01 -2.34 2.02 -2 1 C-3.98 1.33 -5.96 1.66 -8 2 C-5.14066998 -0.85933002 -3.8625627 -1.2875209 0 0 Z " fill="#7AB1D7" transform="translate(159,243)"/>
<path d="M0 0 C1.1875 1.625 1.1875 1.625 2 4 C0.625 7.25 0.625 7.25 -1 10 C-1.33 10 -1.66 10 -2 10 C-1.125 2.25 -1.125 2.25 0 0 Z " fill="#C2D7F7" transform="translate(257,230)"/>
<path d="M0 0 C1.1875 1.625 1.1875 1.625 2 4 C0.625 7.25 0.625 7.25 -1 10 C-1.33 10 -1.66 10 -2 10 C-1.54177532 6.53058454 -1.10868317 3.32604951 0 0 Z " fill="#DBE8FA" transform="translate(279,237)"/>
</svg>
